# xmcd
#
# Track frame offsets:
#	150
#	16711
#	34973
#	54764
#	73420
#	92656
#	109512
#	126255
#	145698
#
# Disc length: 2151 seconds
#
# Revision: 0
# Processed by: cddbd v1.5.2PL0 Copyright (c) Steve Scherf et al.
# Submitted via: audiograbber 1.83.01
#
DISCID=72086509
DTITLE=Various Artist - Красное вино. Каберне
DYEAR=2007
DGENRE=
TTITLE0=Дыхание
TTITLE1=Полет
TTITLE2=Вечер для двоих
TTITLE3=Неровность
TTITLE4=Chill-Out
TTITLE5=Меланхолия
TTITLE6=Размышления
TTITLE7=Всегда
TTITLE8=Серенада
EXTD=
EXTT0=
EXTT1=
EXTT2=
EXTT3=
EXTT4=
EXTT5=
EXTT6=
EXTT7=
EXTT8=
PLAYORDER=
